<svg xmlns="http://www.w3.org/2000/svg" xmlns:xlink="http://www.w3.org/1999/xlink" viewBox="0 0 470 470"><g><path d="M91.396,79.024V197.31c0,40.541,32.982,73.522,73.522,73.522H374.55c40.54,0,73.522-32.982,73.522-73.522v-64.548   C448.072,59.557,388.516,0,315.311,0h-44.015c-4.143,0-7.5,3.358-7.5,7.5v95.261c0,4.142,3.357,7.5,7.5,7.5s7.5-3.358,7.5-7.5V15   h36.515c64.934,0,117.762,52.828,117.762,117.761v64.548c0,32.27-26.253,58.522-58.522,58.522H164.919   c-32.27,0-58.522-26.253-58.522-58.522v-24.037H254.79c13.237,0,24.006-10.769,24.006-24.005v-9.006h131.776   c4.143,0,7.5-3.358,7.5-7.5s-3.357-7.5-7.5-7.5H106.396V79.024c0-32.311-24.639-58.975-56.114-62.193   C47.225,7.088,38.111,0,27.372,0C14.135,0,3.366,10.769,3.366,24.006s10.769,24.005,24.006,24.005   c10.465,0,19.382-6.733,22.66-16.094C73.335,34.947,91.396,54.909,91.396,79.024z M263.796,140.261v9.006   c0,4.966-4.04,9.005-9.006,9.005H106.396v-18.011H263.796z M27.372,33.011c-4.966,0-9.006-4.04-9.006-9.005   c0-4.966,4.04-9.006,9.006-9.006s9.006,4.04,9.006,9.006C36.378,28.971,32.338,33.011,27.372,33.011z"></path><path d="m374.55,285.832c-48.25,0-87.948,37.303-91.777,84.584h-26.077c-3.83-47.281-43.527-84.584-91.777-84.584-50.775,0-92.084,41.309-92.084,92.084s41.309,92.084 92.084,92.084c48.25,0 87.948-37.303 91.777-84.584h26.077c3.829,47.281 43.527,84.584 91.777,84.584 50.775,0 92.084-41.309 92.084-92.084s-41.309-92.084-92.084-92.084zm-209.631,169.168c-42.504,0-77.084-34.58-77.084-77.084s34.58-77.084 77.084-77.084 77.084,34.58 77.084,77.084-34.58,77.084-77.084,77.084zm209.631,0c-42.504,0-77.084-34.58-77.084-77.084s34.58-77.084 77.084-77.084 77.084,34.58 77.084,77.084-34.58,77.084-77.084,77.084z"></path><path d="m374.55,315.832c-34.233,0-62.084,27.851-62.084,62.084s27.85,62.084 62.084,62.084c10.53,0 20.953-2.708 30.142-7.831 3.618-2.017 4.915-6.585 2.898-10.203-2.018-3.618-6.585-4.916-10.203-2.898-6.961,3.881-14.857,5.932-22.837,5.932-25.962,0-47.084-21.122-47.084-47.084s21.122-47.084 47.084-47.084 47.084,21.122 47.084,47.084c0,7.979-2.052,15.876-5.933,22.837-2.017,3.618-0.72,8.186 2.898,10.203 3.618,2.016 8.187,0.719 10.203-2.898 5.123-9.189 7.831-19.612 7.831-30.142 0.001-34.233-27.85-62.084-62.083-62.084z"></path><path d="m164.919,315.832c-34.233,0-62.084,27.851-62.084,62.084s27.851,62.084 62.084,62.084c10.53,0 20.953-2.708 30.142-7.831 3.618-2.017 4.915-6.585 2.898-10.203-2.019-3.618-6.584-4.916-10.203-2.898-6.961,3.881-14.857,5.932-22.837,5.932-25.962,0-47.084-21.122-47.084-47.084s21.122-47.084 47.084-47.084 47.084,21.122 47.084,47.084c0,7.979-2.052,15.876-5.933,22.837-2.017,3.618-0.72,8.186 2.898,10.203 3.618,2.016 8.187,0.719 10.203-2.898 5.123-9.189 7.831-19.612 7.831-30.142 0.001-34.233-27.85-62.084-62.083-62.084z"></path></g></svg>