<svg xmlns="http://www.w3.org/2000/svg" xmlns:xlink="http://www.w3.org/1999/xlink" width="523px" height="326px" viewBox="0 0 523 326"><title>Group 144</title><defs><polygon id="path-1" points="-7.5489486e-14 0 46 0 46 44 -7.5489486e-14 44"></polygon><polygon id="path-3" points="-7.47866622e-14 0 35 0 35 25 -7.47866622e-14 25"></polygon><polygon id="path-5" points="0 0 9 0 9 98 0 98"></polygon><polygon id="path-7" points="0 0 8 0 8 98 0 98"></polygon><polygon id="path-9" points="0 0 9 0 9 98 0 98"></polygon><polygon id="path-11" points="7.01121417e-14 0 8 0 8 98 7.01121417e-14 98"></polygon><polygon id="path-13" points="0 326 523 326 523 0 0 0"></polygon></defs><g id="Page-1" stroke="none" stroke-width="1" fill="none" fill-rule="evenodd"><g id="Artboard" transform="translate(-713.000000, -2492.000000)"><g id="Group-144" transform="translate(713.000000, 2492.000000)"><path d="M125.009764,85.5816489 C144.349745,85.5320236 170.256324,90.6799909 170.256324,90.6799909 L211,95 L210.668867,77.5998183 L169.390686,64.1108903 L117,49 L125.009764,85.5816489 Z" id="Fill-1" fill="#5C8EBC"></path><path d="M166.410501,77.9156108 C166.410501,77.9156108 142.151864,66.1217862 121,64 L125.042455,86.5365974 C144.375083,86.4867347 170.271814,91.6580145 170.271814,91.6580145 L211,96 L210.809736,85.9933571 L166.410501,77.9156108 Z" id="Fill-3" fill="#3F7099"></path><path d="M476.419617,193 C472.83811,175.946254 468.286556,158.667577 464.272618,143.423865 C457.21349,116.617372 451.636051,95.4434181 453.294349,85 L454.891613,85.2619786 C453.289154,95.357415 459.102936,117.435063 465.83482,142.996496 C469.855251,158.260055 474.409402,175.558579 478,192.655988 L476.419617,193 Z" id="Fill-5" fill="#A09A48"></path><path d="M469.592147,160 L468,159.677201 C475.625616,120.885786 502.677775,97.2341614 502.949,97 L504,98.2554755 C503.732686,98.486991 477.103014,121.789358 469.592147,160" id="Fill-7" fill="#A09A48"></path><path d="M465.615842,148 C465.499958,147.801284 453.883328,127.988125 436,114.203985 L436.952816,113 C455.109113,126.993246 466.882829,147.084348 467,147.285661 L465.615842,148 Z" id="Fill-9" fill="#A09A48"></path><path d="M452.426516,97 C441.897384,57.6483805 432.098098,52.5390384 432,52.4926019 L432.699762,51 C433.124851,51.2043206 443.274673,56.4874679 454,96.5661504 L452.426516,97 Z" id="Fill-11" fill="#A09A48"></path><path d="M452.646483,90 L451,89.6599786 C459.087773,53.8801621 478.736074,38.1525571 478.932084,38 L480,39.2437284 C479.808045,39.3962855 460.600429,54.8097263 452.646483,90" id="Fill-13" fill="#A09A48"></path><path d="M422.040091,96.1198536 C411.61732,96.9178076 429.136733,115.596141 457.174527,136 L458,133.877523 C452.784574,102.340114 437.664822,94.9235978 422.040091,96.1198536" id="Fill-15" fill="#A09A48"></path><path d="M481.34417,31.0614288 C478.339917,31.7338939 456.375547,57.3185449 454,80.2765809 L454.960632,83 C471.23931,63.6017697 482.608091,51.2289282 484.315881,43.2587324 C486.023671,35.2885366 484.348423,30.3889637 481.34417,31.0614288" id="Fill-17" fill="#A09A48"></path><g id="Group-21" transform="translate(477.000000, 91.000000)"><mask id="mask-2" fill="white"><use xlink:href="#path-1"></use></mask><g id="Clip-20"></g><path d="M39.1222909,1.92484034 C32.5671591,-5.75273349 12.2483753,10.5996557 4.11554973,32.1384909 L-7.5489486e-14,44 C7.88581294,34.2186023 35.4144449,29.404969 42.2551021,24.5057074 C49.0944312,19.6051283 45.6774227,9.60241417 39.1222909,1.92484034" id="Fill-19" fill="#A09A48" mask="url(#mask-2)"></path></g><path d="M448.999734,83 C449.05476,57.4894006 440.568603,47.9974152 428.021222,48 C415.472499,48.0025858 435.796062,54.7761121 441.376552,66.830145 C446.958386,78.8841779 448.999734,83 448.999734,83" id="Fill-22" fill="#A09A48"></path><g id="Group-26" transform="translate(487.000000, 91.000000)"><mask id="mask-4" fill="white"><use xlink:href="#path-3"></use></mask><g id="Clip-25"></g><path d="M-7.47866622e-14,19.2155516 C6.20728801,22.7639397 15.2511409,25 25.3264718,25 C27.1197176,25 28.8800719,24.9293463 30.5970093,24.791964 C30.8469849,24.6401893 31.0785412,24.4897229 31.2890469,24.3379482 C38.0660161,19.4706901 34.6808207,9.53598819 28.1867186,1.91061711 C23.0661665,-4.10018501 9.4727583,4.72760817 -7.47866622e-14,19.2155516" id="Fill-24" fill="#B5AA48" mask="url(#mask-4)"></path></g><path d="M442.104907,101.709062 C436.605288,97.7096184 430.274155,96.6043177 423.852035,97.1173041 C415.089545,97.8167109 427.37902,112.57036 448.949102,130 C451.537158,123.440913 449.302937,112.547884 442.711482,102.573735 C442.514345,102.276255 442.305835,101.99993 442.104907,101.709062" id="Fill-27" fill="#B5AA48"></path><path d="M481.319358,30.0644088 C481.269559,30.0765889 481.200102,30.1144823 481.138509,30.1401956 C480.460978,30.6192766 479.792621,31.1443709 479.133438,31.7249521 C477.794103,33.0228013 476.018371,35.0203252 474.0133,37.5767768 C471.527275,41.1915372 469.419985,45.5804057 467.967947,50.503842 C465.910456,57.4789356 465.526479,64.3173423 466.535567,70 C476.470495,57.7076494 483.04267,49.0178791 484.311238,42.8534338 C486.030619,34.4965841 484.344,29.3593208 481.319358,30.0644088" id="Fill-29" fill="#B5AA48"></path><path d="M440.698188,65 C442.661221,62.9813294 443.762249,60.2199404 444,57.1157582 C440.493493,50.7080661 435.210848,47.9987308 428.810646,48 C417.434205,48.0025397 434.568793,54.0991788 440.698188,65" id="Fill-31" fill="#B5AA48"></path><path d="M485,121.736702 L486.514201,123 C490.301036,115.67367 511,99 511,99 C511,99 498.37855,104.051859 485,121.736702" id="Fill-33" fill="#A09A48"></path><path d="M462,66.2495752 L463.463009,67 C465.204751,60.3481364 479,43 479,43 C479,43 469.653603,49.419395 462,66.2495752" id="Fill-35" fill="#A09A48"></path><path d="M454,125.683867 L453.072875,127 C448.610763,119.368517 429,102 429,102 C429,102 439.91314,107.263227 454,125.683867" id="Fill-37" fill="#A09A48"></path><path d="M473.530598,178 C473.530598,178 467.640038,181.778365 462,194.055409 L494,195 C489.846047,183.981971 473.530598,178 473.530598,178" id="Fill-39" fill="#7F3C44"></path><path d="M498.998178,189.511572 C472.112298,183.860535 456.197423,189.511572 456.197423,189.511572 C456.197423,189.511572 453.963024,205.762921 464.528131,220 L490.803205,220 C499.336209,206.447536 498.998178,189.511572 498.998178,189.511572" id="Fill-41" fill="#C1A78A"></path><path d="M499.998208,190.491885 C486.304492,187.640026 475.460146,187.689783 468.098074,188.425662 C468.036614,189.306884 468,190.199891 468,191.103372 C468,206.509696 477.092094,219 488.306505,219 C490.048295,219 491.728626,218.667414 493.340959,218.100447 C500.292429,205.192446 499.998208,190.491885 499.998208,190.491885" id="Fill-43" fill="#E0C7AD"></path><g id="Group-47" transform="translate(488.000000, 227.000000)"><mask id="mask-6" fill="white"><use xlink:href="#path-5"></use></mask><g id="Clip-46"></g><polygon id="Fill-45" fill="#BCA7A7" mask="url(#mask-6)" points="6.66680942 0 0 0 7.00085653 98.0003959 9 98.0003959"></polygon></g><g id="Group-50" transform="translate(449.000000, 227.000000)"><mask id="mask-8" fill="white"><use xlink:href="#path-7"></use></mask><g id="Clip-49"></g><polygon id="Fill-48" fill="#BCA7A7" mask="url(#mask-8)" points="1.59975331 0 8 0 1.91921061 98.0003959 0 98.0003959"></polygon></g><path d="M510,221.337333 C489.092539,218.258099 468.419364,218.1839 448,221.337333 L448,230 L510,230 L510,221.337333 Z" id="Fill-51" fill="#DBC8C8"></path><g id="Group-55" transform="translate(501.000000, 227.000000)"><mask id="mask-10" fill="white"><use xlink:href="#path-9"></use></mask><g id="Clip-54"></g><polygon id="Fill-53" fill="#DBC8C8" mask="url(#mask-10)" points="6.66680942 0 0 0 6.99957173 98.0003959 9 98.0003959"></polygon></g><g id="Group-58" transform="translate(463.000000, 227.000000)"><mask id="mask-12" fill="white"><use xlink:href="#path-11"></use></mask><g id="Clip-57"></g><polygon id="Fill-56" fill="#DBC8C8" mask="url(#mask-12)" points="1.59975331 0 8 0 1.92044403 98.0003959 7.01121417e-14 98.0003959"></polygon></g><path d="M468,220 C461.307677,220.361483 454.638836,221.028522 448,222.081597 L448,231 L468,231 L468,220 Z" id="Fill-59" fill="#BCA7A7"></path><mask id="mask-14" fill="white"><use xlink:href="#path-13"></use></mask><g id="Clip-62"></g><polygon id="Fill-61" fill="#49363D" mask="url(#mask-14)" points="114 326 462 326 462 309 114 309"></polygon><path d="M206.30203,100 C201.786668,81.5464587 203.21421,75 203.21421,75 L214.922758,79.3927334 C214.922758,79.3927334 229.954569,82.1312541 233.350901,84.0440221 C236.747232,85.9567901 243,94.6136561 243,94.6136561 L220.455666,94.6204245 L206.30203,100 Z" id="Fill-63" fill="#3D3838" mask="url(#mask-14)"></path><path d="M220.178296,92.5132668 C210.436214,90.4727166 207.15938,83.5218072 204,79 C204.09106,82.6638634 204.736397,89.0241215 207.208209,99 L221.011031,93.8184367 L243,93.8119173 C243,93.8119173 241.982505,92.4233001 240.56118,90.6604733 C236.121684,91.3202295 225.990288,93.7310776 220.178296,92.5132668" id="Fill-64" fill="#1E1B1B" mask="url(#mask-14)"></path><path d="M390,243 L111.631673,243 L109.019899,147.373566 C108.221203,118.136044 131.567693,94 160.64623,94 L304.480737,94 C338.232493,94 367.806456,117.124951 375.700602,150.132046 C382.962066,180.500309 387.989535,211.394497 390,243" id="Fill-65" fill="#8758AF" mask="url(#mask-14)"></path><path d="M242,94 L161.475371,94 C145.087159,94 130.512554,101.232626 121,112.499555 C135.045911,115.584906 232.708393,103.78827 242,94" id="Fill-66" fill="#744C9E" mask="url(#mask-14)"></path><path d="M266.506754,212.430265 C192.584925,188.259642 142.146839,139.284404 153.851455,103.038992 C154.893289,99.8137872 156.400484,96.8016667 158.318137,94 C130.332418,95.2482543 108.242144,118.871697 109.019924,147.334263 L111.631698,243 L390,243 C389.49673,235.094828 388.806532,227.234377 387.938555,219.416017 C358.252176,229.41652 313.286004,227.724998 266.506754,212.430265" id="Fill-67" fill="#744C9E" mask="url(#mask-14)"></path><polyline id="Fill-68" fill="#1E1B1B" mask="url(#mask-14)" points="163 119.064876 156.474048 119 154 124.964806 157.363893 128"></polyline><path d="M174.697932,123.879104 L173,123.112348 L174.549826,120 L176.247758,120.766756 C176.903657,121.06263 177.184001,121.809241 176.873242,122.433725 L176.450082,123.283578 C176.138001,123.909321 175.353831,124.174979 174.697932,123.879104" id="Fill-69" fill="#E97A2E" mask="url(#mask-14)"></path><path d="M168.000173,123.305717 C168.000173,123.305717 168.004315,123.453898 168.011218,123.713844 C168.019502,123.985092 168.029167,124.370616 168.070587,124.839021 C168.106484,125.304914 168.176898,125.852433 168.288732,126.435114 C168.401947,127.017795 168.57315,127.638149 168.802341,128.242178 C168.932124,128.543564 169.050862,128.843695 169.2124,129.128757 C169.368416,129.415074 169.531335,129.690089 169.72739,129.942501 C169.897212,130.202446 170.123642,130.424719 170.319697,130.638201 C170.515752,130.851683 170.757369,131.014935 170.947901,131.180697 C171.15224,131.336414 171.370386,131.445666 171.545731,131.55743 C171.718315,131.672962 171.899182,131.728216 172.035869,131.791005 C172.312003,131.905281 172.470779,131.969325 172.470779,131.969325 C172.658551,132.047184 172.880838,131.971837 172.96644,131.799795 C173.040996,131.650358 172.98715,131.477061 172.846322,131.382877 L172.793856,131.348971 C172.793856,131.348971 172.673738,131.268602 172.462495,131.12921 C172.361707,131.057631 172.22364,130.989819 172.104902,130.865497 C171.982023,130.746198 171.828768,130.631922 171.694843,130.478718 C171.571964,130.312955 171.411806,130.162262 171.297211,129.961337 C171.181234,129.761669 171.043168,129.567023 170.954805,129.330937 C170.844351,129.10992 170.765653,128.865043 170.692478,128.615144 C170.613779,128.369011 170.572359,128.100275 170.521275,127.842841 C170.445338,127.314158 170.414963,126.777941 170.42877,126.269351 C170.443957,125.762017 170.485377,125.286078 170.544746,124.87795 C170.597211,124.469822 170.663483,124.128251 170.707665,123.889653 C170.755988,123.639753 170.783602,123.497851 170.783602,123.497851 C170.918907,122.803406 170.40944,122.141611 169.64593,122.019801 C168.88242,121.896734 168.154808,122.360116 168.020883,123.054561 C168.005695,123.136187 167.998792,123.225347 168.000173,123.305717" id="Fill-70" fill="#E97A2E" mask="url(#mask-14)"></path><path d="M175,119.597435 L173.465187,122.98334 L173.420662,122.961424 C170.958676,121.741019 168.017388,122.839521 166.850564,125.413192 L164.494653,130.613953 C164.341433,130.9509 163.956421,131.094719 163.632957,130.934463 L157.857766,128.071785 L157.874791,128.033433 C158.939469,125.684393 158.824227,122.93677 157.567043,120.694567 L157,119.683726 L157.032739,119.609762 C158.855657,115.586945 163.450928,113.872078 167.297126,115.778704 L175,119.597435 Z" id="Fill-71" fill="#CFEDEC" mask="url(#mask-14)"></path><polygon id="Fill-72" fill="#81B1B8" mask="url(#mask-14)" points="158 130.158621 162.380347 132 163 130.841379 158.619653 129"></polygon><path d="M154.567792,169.900907 L152.098936,175.218824 C151.376912,176.773902 149.557619,177.437155 148.028171,176.697271 L136.632358,171.181171 C134.335598,170.070024 133.356078,167.267713 134.44429,164.922545 L142.101883,148.425773 C144.750597,142.722059 147.571407,138.702904 150.841217,135.204309 C152.707092,133.211907 154.71789,131.37673 156.92925,129.501917 C157.573636,128.957574 158.470343,128.847912 159.22601,129.212569 L162.770137,130.928836 C163.646141,131.352948 164.132666,132.316119 163.968335,133.292501 L163.484397,135.635027 C163.401585,136.035357 163.101388,136.377554 162.706734,136.450221 C162.248676,136.525531 161.799675,136.883582 161.544767,137.43321 C161.327384,137.903565 161.309268,138.414877 161.456779,138.805959 C161.537004,139.021318 161.415372,139.28292 161.201871,139.354266 C160.940493,139.444109 160.688173,139.61851 160.483729,139.872185 C160.378919,139.996379 160.289636,140.13775 160.217175,140.294976 C159.99591,140.771936 159.980382,141.276643 160.127893,141.667725 C160.20553,141.88969 160.083898,142.149971 159.870397,142.222638 C159.479624,142.35476 159.106966,142.685065 158.885701,143.162026 C158.518219,143.953438 158.877937,146.047574 158.877937,146.047574 L158.952986,147.659464 C159.290707,155.321228 157.788432,162.963173 154.567792,169.900907" id="Fill-73" fill="#88D5D2" mask="url(#mask-14)"></path><path d="M160.388138,137.532284 C160.155474,138.008182 160.1362,138.52552 160.293145,138.92121 C160.378501,139.139107 160.250467,139.403791 160.021933,139.477315 C159.745215,139.568217 159.47538,139.743336 159.259237,140 L149,135.278455 C150.985215,133.261238 153.124621,131.404436 155.47604,129.50753 C156.161641,128.956772 157.117077,128.845818 157.919699,129.216109 L161.691882,130.951264 C162.623914,131.380373 163.14018,132.354894 162.966714,133.344119 L162.451825,135.712912 C162.362339,136.11796 162.042942,136.464189 161.623046,136.539049 C161.137068,136.613909 160.65935,136.977516 160.388138,137.532284" id="Fill-74" fill="#CFEDEC" mask="url(#mask-14)"></path><path d="M136.413428,166.930236 C136.052959,166.759466 135.898472,166.331227 136.070124,165.97261 L144.482401,148.314971 C148.599412,139.675313 156.293391,132.529237 157.793367,131.184093 C158.090457,130.918742 158.547316,130.943701 158.814037,131.236638 C159.080758,131.532202 159.058312,131.986713 158.761221,132.252064 C157.295576,133.564367 149.787774,140.538359 145.788278,148.931058 L137.376001,166.588696 C137.204349,166.947313 136.773898,167.101007 136.413428,166.930236" id="Fill-75" fill="#DFFFFE" mask="url(#mask-14)"></path><path d="M25.5827095,290.052057 L35,290 C35,290 31.184291,302.320237 30.3098577,312.474087 L22,313 C26.1898788,306.992049 25.5827095,290.052057 25.5827095,290.052057" id="Fill-76" fill="#DDBF92" mask="url(#mask-14)"></path><path d="M77,289 L69,291.664526 C69,291.664526 70.252267,303.549224 69.3532035,314 L76.3352163,312.156768 C73.7426788,307.033708 77,289 77,289" id="Fill-77" fill="#DDBF92" mask="url(#mask-14)"></path><path d="M-1,326 L32.776645,326 C32.776645,326 34.4853458,311.554332 28.4505853,309.297277 C22.4171493,307.040223 22.7708106,318.325495 8.2918888,319.905693 C3.79893273,320.396414 -0.699321631,324.419802 -1,326" id="Fill-78" fill="#1E1B1B" mask="url(#mask-14)"></path><path d="M96.996015,325 L63,325 C63,325 65.2989675,312.253853 71.999681,310.262308 C78.6990777,308.270763 75.2058585,318.228487 89.3393735,319.622049 C93.7240023,320.054937 97.1329524,323.606439 96.996015,325" id="Fill-79" fill="#1E1B1B" mask="url(#mask-14)"></path><path d="M62.1220938,141.521865 C55.5334125,168.167018 61.420043,307 61.420043,307 L80.7357146,303.508166 C80.7357146,303.508166 98.6724524,158.701791 103,137 L62.1220938,141.521865 Z" id="Fill-80" fill="#5C8EBC" mask="url(#mask-14)"></path><path d="M79,140 L62.0122297,141.4051 C55.6561917,168.069055 61.3336901,307 61.3336901,307 L68.3631563,305.681895 C64.9257333,286.399331 70.6645686,157.367357 79,140" id="Fill-81" fill="#3F7099" mask="url(#mask-14)"></path><path d="M19.3137042,296.995032 L40.2917075,302 C40.2917075,302 56.3343999,193.651957 62.4347933,170.879882 L73.8145489,170.354017 C80.4075611,150.187484 92.1795872,137.598431 103.258298,139.853837 C103.258298,139.853837 110.551142,105.155985 130,81.4946955 C130,81.4946955 130.142514,55.7894021 126.68506,52.2840748 C123.227605,48.7787475 89.8064155,35.4881 70.3583977,56.9574041 C50.9103799,78.4280295 32.3263999,121.115597 27.14087,143.714586 C16.5990878,189.648512 19.3137042,296.995032 19.3137042,296.995032" id="Fill-82" fill="#5C8EBC" mask="url(#mask-14)"></path><path d="M127.705968,52.2901001 C124.214448,48.7818732 90.463966,35.4802318 70.8243307,56.9672952 C53.8220893,75.5689643 37.4831446,110.073361 30,133.682816 C47.9761294,135.333124 69.8570231,130.555429 90.8206196,119.070714 C102.675731,112.575271 131.197488,55.7983271 127.705968,52.2901001" id="Fill-83" fill="#5385AA" mask="url(#mask-14)"></path><path d="M70.6391188,56.9012774 C51.0847996,78.2674038 32.399241,120.747208 27.1853674,143.234891 C16.5859646,188.946568 19.3154189,295.770626 19.3154189,295.770626 L24.5253615,297 C23.3460485,271.544726 24.9852935,240.853764 29.8414422,208.165563 C39.2811873,144.611527 61.0185457,125.673908 69.7035305,108.491597 C69.6917374,107.989329 75.6472678,89.976041 75.6472678,89.4685133 C75.6472678,73.1710895 81.7574193,59.9609067 89.2958498,59.9609067 C92.7093056,59.9609067 95.8213814,62.6878818 98.2140764,67.1649071 C103.084639,56.7369225 110.780311,49.9996898 119.446951,49.9996898 C121.708611,49.9996898 123.903444,50.462513 126,51.3263619 C118.865157,46.9834502 88.7402623,37.1234759 70.6391188,56.9012774" id="Fill-84" fill="#3F7099" mask="url(#mask-14)"></path><path d="M53.6039977,125.829016 C40.2893353,118.59428 40,112.516684 40,112.516684 C40,112.516684 68.2435803,49.1358482 81.9693345,50.0089382 C102.975604,51.3427893 63.1101691,130.144724 53.6039977,125.829016" id="Fill-85" fill="#3F7099" mask="url(#mask-14)"></path><path d="M122.781139,49.8145469 C128.110381,65.4066448 123.316741,83.2018134 113.974501,98 L86,84.4135023 C86,84.4135023 97.3226296,60.8769167 89.5523813,47.9580569 C99.1369819,44.0946233 110.36722,46.6093478 122.781139,49.8145469" id="Fill-86" fill="#5C8EBC" mask="url(#mask-14)"></path><path d="M90,47.960731 C94.5107507,55.5636338 92.507295,66.834816 90.0886017,74.8399247 C91.7508748,74.9421577 93.4435634,75 95.1666675,75 C107.155664,75 117.834149,72.441486 124.76227,68.4544011 C125.373225,62.1146133 124.835003,55.8044192 122.817001,49.8197564 C110.55691,46.61018 99.4671546,44.0920211 90,47.960731" id="Fill-87" fill="#3F7099" mask="url(#mask-14)"></path><path d="M131.230077,138 C138.720047,128.632346 141,119.934278 141,119.934278 L105.741508,98.7460056 C105.741508,98.7460056 88.7291527,55.7470462 86.1430349,52.3532535 C80.8418192,45.3966338 70.420481,55.1626324 65.297753,64.7530449 C60.175025,74.3434573 70.8491121,106.29097 86.234233,122.834071 C88.5154886,125.287036 131.230077,138 131.230077,138" id="Fill-88" fill="#5C8EBC" mask="url(#mask-14)"></path><path d="M99.5478612,117.372304 C84.0607362,100.829262 73.3136577,68.8793318 78.4707864,59.2868832 C80.0840286,56.2885878 82.2179676,53.2719462 84.5525783,50.7558941 C78.9154117,47.3408776 69.9494575,56.1116779 65.3064678,64.7475025 C60.1493391,74.3386406 70.895106,106.288571 86.3835426,122.831613 C88.6801175,125.286074 131.681547,138 131.681547,138 C133.879754,135.269035 135.620219,132.602282 137,130.184513 C124.484913,126.388158 101.221436,119.15975 99.5478612,117.372304" id="Fill-89" fill="#3F7099" mask="url(#mask-14)"></path><path d="M98,49.5979312 C105.152029,43.3559579 103.691785,30 103.691785,30 L125,34.9352694 C124.570905,41.2534124 123.183276,48.2610221 121.205477,55.6954447 C121.205477,55.6954447 117.671051,65.4254637 112.010954,64.9855181 C102.669878,64.260593 98,49.5979312 98,49.5979312" id="Fill-90" fill="#DD704A" mask="url(#mask-14)"></path><path d="M97,46.6437126 L101.019183,46 C101.019183,46 107.802714,63.3965705 113.705474,62.2370713 C119.608234,61.0762112 121.995868,52.7011432 121.995868,52.7011432 L123,53.2155689 C123,53.2155689 122.623285,65.5876429 118.980817,71 L113.956176,66.876429 L106.923269,71 C106.923269,71 98.5068619,64.0402831 97,46.6437126" id="Fill-91" fill="#E5DDCF" mask="url(#mask-14)"></path><path d="M227.375675,102.945796 C230.62711,108.510058 233.665041,105.196078 232.872761,102.974866 C231.159584,98.1769954 226.969245,97.4647805 228.499787,92.6048055 C229.353803,89.8920462 228.557664,85.304272 222.980836,84.2273608 C217.404007,83.1504495 210.173165,86.0283792 214.138424,90.131213 C218.103683,94.2327253 224.773755,98.4928013 227.375675,102.945796" id="Fill-92" fill="#3D3838" mask="url(#mask-14)"></path><path d="M150.379048,148 C144.314632,146.254944 136.735091,141.017145 136.735091,141.017145 L121,135.678011 C125.981625,120.18439 132.750052,112 132.750052,112 L147.130674,122.250557 L157.506664,118.616999 L159.2582,124.21539 C159.2582,124.21539 164.134028,128.14374 165,130.979784" id="Fill-93" fill="#3D3838" mask="url(#mask-14)"></path><path d="M159.855134,125.418057 L158.074943,120 L151.260603,122.325663 C150.76979,124.670432 149.700614,126.746462 147.980116,128.356341 C142.750969,133.248385 133.283587,132.42052 124.833646,126.968075 C123.531003,129.739512 122.213767,132.915966 121,136.511447 L136.980602,141.679871 C136.980602,141.679871 144.990137,145.928728 150.837443,148.437795 C157.687598,151.376079 162.78542,141.840349 162.78542,141.840349 C162.78542,141.840349 171.691683,127.985712 159.855134,125.418057" id="Fill-94" fill="#1E1B1B" mask="url(#mask-14)"></path><path d="M370.843902,175 C370.819322,175 370.793448,175.002084 370.768868,175 C351.834484,174.628341 348,309 348,309 L355.345547,309 L381.776839,309 L407.503073,309 L416,175 L370.843902,175 Z" id="Fill-95" fill="#684191" mask="url(#mask-14)"></path><path d="M370.804911,172 C370.778755,172 370.753906,172.001683 370.729057,172.001683 C351.526212,171.591335 369.995365,319 369.995365,319 L377.421215,319 L404.141458,319 L430.150242,319 L433,172 L370.804911,172 Z" id="Fill-96" fill="#73469B" mask="url(#mask-14)"></path><path d="M420,320 L196,320 L196,235 L398.917032,235 C410.574335,262.5659 418.50266,290.748722 420,320" id="Fill-97" fill="#915CB7" mask="url(#mask-14)"></path><path d="M326.928418,306.081196 C261.159123,291.517905 210.395894,261.367497 204.064209,235 L196,235 L196,320 L420,320 C419.877182,317.605819 419.695567,315.222138 419.489127,312.841083 C393.923285,315.719613 361.401213,313.715274 326.928418,306.081196" id="Fill-98" fill="#8758AF" mask="url(#mask-14)"></path><path d="M221,320 L186.396462,320 L175,235 L206.345894,235 C211.842341,262.5659 216.84657,290.748722 221,320" id="Fill-99" fill="#73469B" mask="url(#mask-14)"></path><path d="M425.14005,319 L474,319 C474,319 464.712057,172.411197 431.600495,172 C398.488932,171.591817 425.14005,319 425.14005,319" id="Fill-100" fill="#915CB7" mask="url(#mask-14)"></path><path d="M110.804911,172 C110.778755,172 110.755214,172.001683 110.729057,172.001683 C91.5262122,171.591335 109.995365,319 109.995365,319 L117.421215,319 L144.141458,319 L170.150242,319 L173,172 L110.804911,172 Z" id="Fill-101" fill="#684191" mask="url(#mask-14)"></path><path d="M165.14005,319 L214,319 C214,319 204.712057,172.411197 171.600495,172 C138.488932,171.591817 165.14005,319 165.14005,319" id="Fill-102" fill="#915CB7" mask="url(#mask-14)"></path><path d="M214.636931,163.93215 C209.437358,155.631726 202.489257,165.195772 204.734991,172.068039 C207.699054,181.142431 221.682172,190.214192 230.396697,183.89476 C240.93644,176.252474 231.002547,159.788519 224.1976,153.484883 C218.532776,148.236899 211.620463,144.773782 204.705594,141.631836 C196.953527,138.109487 183.914972,131.701865 179.68297,123.509376 C179.211327,122.594566 178.679611,122.989448 179.242003,124.078007 C183.076496,131.500475 191.011341,139.711392 198.088537,142.88098 C207.024184,146.87982 216.198847,150.958953 222.983344,158.423543 C227.353388,163.230575 237.942979,183.060243 225.368398,182.893076 C220.767007,182.832527 215.341199,179.344401 212.279996,176.089256 C210.817775,174.534736 209.507657,172.639302 208.70497,170.629351 C207.783413,168.324556 208.352196,162.17624 211.004387,166.410693 C211.594899,167.353146 215.247893,164.906192 214.636931,163.93215" id="Fill-103" fill="#EFDFDF" mask="url(#mask-14)"></path><path d="M236.384733,125.395139 C230.275516,112.934114 250.493217,112.804174 257.12853,115.34862 C262.58045,117.439601 267.137357,121.567199 270.121169,126.634877 C272.901038,131.357814 274.672879,137.324468 273.668749,142.837656 C271.768306,153.27267 259.200441,154.011209 251.029705,152.816552 C229.168765,149.619752 200.581581,130.53972 179.972881,123.762928 C178.810272,123.381062 176.33437,122.916989 177.168331,123.190129 C195.447917,129.201864 221.620252,147.970304 239.963489,153.748676 C251.251835,157.304801 268.870228,157.962459 275.700392,145.736123 C283.769805,131.288866 269.085863,113.404817 255.150146,111.202459 C246.717012,109.868581 226.417474,115.091391 232.692963,127.891852 C233.11384,128.749724 236.917325,126.479744 236.384733,125.395139" id="Fill-104" fill="#EFDFDF" mask="url(#mask-14)"></path><path d="M289.914075,150.609548 C286.592778,147.760262 288.486558,145.163925 295.598025,142.819227 C297.363811,143.0997 298.96634,143.796949 300.409531,144.910975 C303.375581,147.368387 303.871882,151.165251 303.450026,154.832363 C302.116544,166.439207 290.53837,174.205937 279.460414,173.656788 C266.431213,173.009342 246.833863,164.061744 235.45029,158.21114 C230.826857,155.833676 238.70106,161.34483 239.096795,161.623992 C257.244424,174.430053 285.818288,185.167957 302.11785,163.985728 C307.940242,156.418213 310.963758,139.956835 297.002034,140 C291.156133,140.018434 280.403385,146.50862 286.203574,153.077444 C286.906232,153.874301 290.429967,151.194084 289.914075,150.609548" id="Fill-105" fill="#EFDFDF" mask="url(#mask-14)"></path><polygon id="Fill-106" fill="#EFDFDF" mask="url(#mask-14)" points="216 121.298687 213.361639 121 213 123.699672 215.638361 124"></polygon><polygon id="Fill-107" fill="#EFDFDF" mask="url(#mask-14)" points="189.908 176.211 188.31 176.013 188.092 177.789 189.69 177.987"></polygon><polygon id="Fill-108" fill="#EFDFDF" mask="url(#mask-14)" points="246 181.199346 244.239574 181 244 182.800654 245.758651 183"></polygon><polygon id="Fill-109" fill="#EFDFDF" mask="url(#mask-14)" points="207 197.298687 204.361639 197 204 199.699672 206.638361 200"></polygon><polygon id="Fill-110" fill="#EFDFDF" mask="url(#mask-14)" points="255 144.452007 253.608822 143 252 144.549738 253.391178 146"></polygon><polygon id="Fill-111" fill="#EFDFDF" mask="url(#mask-14)" points="329 155.451163 327.608822 154 326 155.548837 327.391178 157"></polygon><polygon id="Fill-112" fill="#EFDFDF" mask="url(#mask-14)" points="187 115.298687 184.361639 115 184 117.699672 186.638361 118"></polygon><polygon id="Fill-113" fill="#EFDFDF" mask="url(#mask-14)" points="202 156.298687 199.361639 156 199 158.699672 201.638361 159"></polygon><polygon id="Fill-114" fill="#EFDFDF" mask="url(#mask-14)" points="213 116.879412 211.812788 115 210 116.120588 211.187212 118"></polygon><polygon id="Fill-115" fill="#EFDFDF" mask="url(#mask-14)" points="182 133.879412 180.812788 132 179 133.120588 180.187212 135"></polygon><polygon id="Fill-116" fill="#EFDFDF" mask="url(#mask-14)" points="263 106.879412 261.812788 105 260 106.120588 261.187212 108"></polygon><polygon id="Fill-117" fill="#EFDFDF" mask="url(#mask-14)" points="318 127.879412 316.812788 126 315 127.120588 316.187212 129"></polygon><path d="M62.4334432,173 L53,164 C53,164 59.8445855,168.040948 63.7278721,168.40819 C67.6124608,168.775431 85,164.918103 85,164.918103 L70.2026208,172.265517 L62.4334432,173 Z" id="Fill-118" fill="#3F7099" mask="url(#mask-14)"></path><path d="M446.719665,199.011113 C445.300873,187.719957 438.9049,179.232784 432.432417,180.055044 C425.959933,180.877303 421.861947,190.69773 423.280739,201.988887 C424.698188,213.280043 431.095504,221.767216 437.567987,220.944956 C444.04047,220.122697 448.137115,210.30227 446.719665,199.011113" id="Fill-119" fill="#73469B" mask="url(#mask-14)"></path><path d="M445.778009,197.301658 C444.655493,188.212569 439.59134,181.382151 434.467751,182.044357 C429.342811,182.705237 426.099538,190.609254 427.222054,199.698342 C428.344569,208.787431 433.408723,215.617849 438.532312,214.955643 C443.6559,214.294763 446.900525,206.390746 445.778009,197.301658" id="Fill-120" fill="#915CB7" mask="url(#mask-14)"></path><path d="M187.719266,199.011113 C186.300498,187.719957 179.904632,179.232784 173.432258,180.055044 C166.959884,180.877303 162.861966,190.69773 164.280734,201.988887 C165.69816,213.280043 172.095368,221.767216 178.567742,220.944956 C185.040116,220.122697 189.138034,210.30227 187.719266,199.011113" id="Fill-121" fill="#73469B" mask="url(#mask-14)"></path><path d="M185.777947,197.301658 C184.655435,188.212569 179.591298,181.382151 174.467726,182.044357 C169.342804,182.705237 166.099541,190.609254 167.222053,199.698342 C168.344565,208.787431 173.408702,215.617849 178.532274,214.955643 C183.657196,214.294763 186.900459,206.390746 185.777947,197.301658" id="Fill-122" fill="#915CB7" mask="url(#mask-14)"></path><path d="M486,190 L498,191.32242 C498,191.32242 497.619133,203.417112 493.620027,203.983863 C489.61958,204.550615 486,190 486,190" id="Fill-123" fill="#EDE1D6" mask="url(#mask-14)"></path><path d="M98,48.3615088 L103.382677,33 L124,37.3242853 L121.937866,51.205839 C121.937866,51.205839 121.709186,66.2259219 110.713815,65.997419 C102.189795,65.8220563 98,48.3615088 98,48.3615088" id="Fill-124" fill="#DD704A" mask="url(#mask-14)"></path><path d="M107.454324,15.2204482 C102.036761,25.2242379 102.350326,47.0271651 104.264655,50.2396833 C106.177666,53.4522016 113.514828,56.9871658 115.110321,56.9871658 C116.704497,56.9871658 125.955988,57.308285 127.551482,54.738005 C129.145658,52.167725 139.672489,29.0352054 139.991324,22.9312881 C140.311477,16.8260438 131.697657,12.3290491 126.274823,9.75876915 C120.85199,7.18848919 109.368653,11.6868109 107.454324,15.2204482" id="Fill-125" fill="#FFA77B" mask="url(#mask-14)"></path><path d="M128.265807,28.7248357 C131.742104,28.7248357 135.052361,29.2028836 138.104334,30.044406 C139.178323,26.9627748 139.911007,24.3552407 139.991392,22.8262775 C140.310294,16.76837 131.695982,12.3039556 126.272009,9.75304974 C120.848037,7.20214391 109.36097,11.6665583 107.447557,15.17356 C103.93568,21.6081113 102.839289,32.9377153 103.018507,41 C106.899362,33.8279643 116.724711,28.7248357 128.265807,28.7248357" id="Fill-126" fill="#EA875C" mask="url(#mask-14)"></path><path d="M100.533786,42 C97.1548019,31.680489 100.412823,18.1202709 100.412823,18.1202709 L112,18 L106.205747,30.1196101 L102.465204,32.2805221 L102.223278,37.5605485 L100.533786,42 Z" id="Fill-127" fill="#663842" mask="url(#mask-14)"></path><path d="M100.004987,23.5136494 C99.7605532,12.8085768 108.540032,2.10350423 117.80838,0.644452409 C127.075384,-0.81593922 137.07569,0.400607201 138.295174,2.34734944 C139.513315,4.29275186 138.782699,24 138.782699,24 C126.303134,18.6367452 113.605995,19.717971 100.004987,23.5136494" id="Fill-128" fill="#F4DEBA" mask="url(#mask-14)"></path><path d="M112.530355,15.6107528 C112.530355,8.83191599 117.183474,2.95359854 124,0 C121.901587,0.0721990754 119.727567,0.258603961 117.588035,0.593345129 C108.435664,2.02288682 99.7647882,12.5114434 100.004872,23 C104.535959,21.7463615 108.96491,20.8051481 113.318255,20.2958164 C112.819517,18.8019519 112.530355,17.2358884 112.530355,15.6107528" id="Fill-129" fill="#E5C595" mask="url(#mask-14)"></path><path d="M142.863158,13.1442949 C134.28587,10.112604 109.624693,13.1442949 102,21.771966 C120.347286,17.632122 138.82972,22.6579748 136.429864,29 C165.737236,25.7358923 151.440445,16.1759858 142.863158,13.1442949" id="Fill-130" fill="#D45F4A" mask="url(#mask-14)"></path><path d="M97.8816673,25.2697181 C92.985178,27.8124666 94.0980722,37.2203561 103,39 C103,39 102.778157,22.7269696 97.8816673,25.2697181" id="Fill-131" fill="#EA875C" mask="url(#mask-14)"></path><path d="M98.1608006,28.1542678 C94.4894666,29.6067613 95.3230056,34.9833806 102,36 C102,36 101.833582,26.7005146 98.1608006,28.1542678" id="Fill-132" fill="#CC4F46" mask="url(#mask-14)"></path><path d="M100.33606,30.0741397 C98.2801976,30.9264895 98.4295768,34.8871009 101.962773,36 C101.962773,36 102.391922,29.22179 100.33606,30.0741397" id="Fill-133" fill="#EA875C" mask="url(#mask-14)"></path><path d="M123.400872,32 C123.161719,34.6478747 122.533942,45.9026479 121.313266,46.1742248 C120.399004,46.3779075 118.961594,45.527924 118.125804,44.9599627 L118,45.279849 C118,45.279849 120.50737,47.2683663 121.850114,46.9693706 C123.194104,46.6716806 123.820635,33.0445265 124,32.2493807 L123.400872,32 Z" id="Fill-134" fill="#DD704A" mask="url(#mask-14)"></path><path d="M117.967598,50.9139772 C113.047329,49.9505533 111.567617,46.1609042 111.22395,44.994439 C110.794691,43.5281814 111.096859,43.2338397 111.19542,43.1370885 C111.399026,42.939498 111.72324,42.9599384 111.907393,43.1697931 C112.042266,43.3237774 112.072094,43.5377202 112.00336,43.7230465 C111.977423,44.457538 112.986377,48.8631243 118.150454,49.8742425 C118.286624,49.9014964 118.426685,49.9260248 118.569339,49.9478279 C118.854647,50.0282268 119.033613,50.2598846 118.994707,50.5474128 C118.953208,50.8363037 118.697727,51.0366196 118.422794,50.9943761 C118.269765,50.9712103 118.116736,50.9425938 117.967598,50.9139772" id="Fill-135" fill="#DD704A" mask="url(#mask-14)"></path><path d="M112.91107,49.6606821 C112.114809,49.1405558 111.284707,48.8717265 111.057772,49.0601992 C110.830838,49.2472109 111.292669,49.8199342 112.08893,50.3400605 C112.885191,50.8587257 113.715293,51.127555 113.942228,50.9405434 C114.169162,50.7535317 113.707331,50.1793473 112.91107,49.6606821" id="Fill-136" fill="#DD704A" mask="url(#mask-14)"></path><path d="M127.221113,36 C126.718471,37.6239109 127.100634,39.345891 128.085192,39.8564278 C129.076227,40.369849 130.297855,39.4627087 130.813452,37.8301447 C130.920976,37.4897868 130.967613,37.1479867 131,36.8105132 L127.221113,36 Z" id="Fill-137" fill="#3F3335" mask="url(#mask-14)"></path><path d="M114.233048,32 C114.231755,32.0042864 114.229171,32.0057152 114.229171,32.0085728 C113.713557,33.6259749 114.09736,35.3491082 115.085942,35.8577612 C116.074525,36.3664141 117.293131,35.4676987 117.807453,33.8502966 C117.918587,33.5016693 117.968986,33.1487556 118,32.8029858 L114.233048,32 Z" id="Fill-138" fill="#3F3335" mask="url(#mask-14)"></path><path d="M121.425199,27.9008228 L116.116177,27.0224869 C115.10788,26.8559059 114.170251,27.6327789 114.020079,28.7579576 C113.871169,29.8831362 114.566503,30.9310818 115.574801,31.0991772 L120.883823,31.9775131 C121.89212,32.1440941 122.829749,31.3672211 122.979921,30.2420424 C123.128831,29.1153494 122.433497,28.0674038 121.425199,27.9008228" id="Fill-139" fill="#663842" mask="url(#mask-14)"></path><path d="M135.063927,32.7817356 L130.561486,30.2380438 C129.706577,29.7549688 128.649094,30.0304725 128.200538,30.8532096 C127.751982,31.6772048 128.081164,32.7351894 128.936073,33.2182644 L133.438514,35.7619562 C134.293423,36.2450312 135.350906,35.9695275 135.799462,35.1467904 C136.248018,34.3240532 135.918836,33.2648106 135.063927,32.7817356" id="Fill-140" fill="#663842" mask="url(#mask-14)"></path><path d="M103.460332,29.4971968 C103.460332,29.4971968 100.890895,37.3869886 100.214382,44.7417032 C99.5378685,52.0977165 100.214382,57.4458914 105.894467,63.3304423 C111.575865,69.2136944 122.53144,69.3474637 127.26572,64.8006059 C132,60.2550469 132,43.940386 132,43.940386 C132,43.940386 123.613862,53.5678801 118.06908,51.6964085 C112.522984,49.8236382 108.735823,46.7482428 108.60052,40.462384 C108.465217,34.1778239 109.547639,26.5555707 110.087536,22.8113288 C110.628746,19.0670868 103.460332,29.4971968 103.460332,29.4971968" id="Fill-141" fill="#663842" mask="url(#mask-14)"></path><path d="M121.683221,53.325766 C121.683221,53.325766 120.438926,49.1799889 116.430872,47.4408925 C112.422819,45.703095 108,46.1044249 108,46.1044249 C108,46.1044249 108.138255,37.9466474 117.122148,44.6328818 C117.122148,44.6328818 124.17047,46.6395315 125,56" id="Fill-142" fill="#663842" mask="url(#mask-14)"></path><path d="M156,129.055556 L157.886302,125 L170.266452,125.385185 C170.266452,125.385185 173.256427,125.292593 172.982231,127.501235 C172.708036,129.709877 163.122203,132 163.122203,132" id="Fill-143" fill="#1E1B1B" mask="url(#mask-14)"></path></g></g></g></svg>